{"glyphs":{":":{"x_min":0,"x_max":602,"ha":602,"o":"m 239 519 l 362 519 l 362 371 l 239 371 z m 239 149 l 362 149 l 362 0 l 239 0 z"},"$":{"x_min":0,"x_max":602,"ha":602,"o":"m 338 283 l 338 71 q 392 73 422 101 q 452 129 452 178 q 452 224 425 249 q 397 274 338 283 z m 289 376 l 289 578 q 238 576 210 548 q 181 521 181 475 q 181 433 208 409 q 234 384 289 376 z m 338 -147 l 289 -147 l 289 0 q 239 2 190 14 q 141 25 93 45 l 93 133 q 142 103 191 86 q 241 70 289 69 l 289 293 q 191 308 142 353 q 93 397 93 470 q 93 547 144 593 q 196 638 289 645 l 289 760 l 338 760 l 338 645 q 377 643 417 635 q 456 628 497 615 l 497 531 q 456 552 416 563 q 377 575 338 577 l 338 366 q 438 351 491 304 q 544 256 544 181 q 544 106 487 56 q 430 5 338 1 z"},"?":{"x_min":0,"x_max":602,"ha":602,"o":"m 334 196 l 241 196 l 241 271 q 241 319 256 352 q 271 386 312 426 l 356 469 q 386 498 398 520 q 409 541 409 565 q 409 608 377 635 q 345 662 292 662 q 254 662 210 645 q 167 628 119 595 l 119 687 q 165 715 212 729 q 258 742 309 742 q 400 742 454 695 q 508 648 508 570 q 508 533 491 501 q 475 469 429 424 l 386 382 q 353 350 343 329 q 334 309 334 279 l 334 256 z m 238 124 l 337 124 l 337 0 l 238 0 z"},"<":{"x_min":0,"x_max":602,"ha":602,"o":"m 559 469 l 144 313 l 559 158 l 559 69 l 43 273 l 43 354 l 559 558 z"},"'":{"x_min":0,"x_max":602,"ha":602,"o":"m 343 729 l 343 458 l 258 458 l 258 729 z"},"=":{"x_min":0,"x_max":602,"ha":602,"o":"m 43 256 l 559 256 l 559 172 l 43 172 z m 43 454 l 559 454 l 559 371 l 43 371 z"},"a":{"x_min":0,"x_max":602,"ha":602,"o":"m 343 275 l 313 275 q 234 275 195 247 q 155 220 155 165 q 155 116 185 88 q 214 61 267 61 q 341 61 384 113 q 426 164 427 255 l 427 275 z m 517 312 l 517 0 l 427 0 l 427 81 q 398 32 354 9 q 311 -14 248 -14 q 165 -14 115 33 q 65 80 65 159 q 65 250 126 298 q 188 345 306 345 l 427 345 l 427 359 q 426 425 394 454 q 361 484 289 484 q 243 484 196 471 q 149 458 105 432 l 105 522 q 155 541 200 551 q 246 560 289 560 q 357 560 405 540 q 453 520 483 480 q 501 456 509 420 q 517 384 517 312 z"},"L":{"x_min":0,"x_max":602,"ha":602,"o":"m 105 729 l 204 729 l 204 83 l 556 83 l 556 0 l 105 0 z"},"3":{"x_min":0,"x_max":602,"ha":602,"o":"m 379 390 q 451 371 489 323 q 527 274 527 201 q 527 101 459 43 q 392 -14 272 -14 q 222 -14 169 -5 q 117 4 67 22 l 67 120 q 117 94 165 82 q 213 69 261 69 q 342 69 386 105 q 429 142 429 211 q 429 274 386 312 q 342 349 268 349 l 193 349 l 193 430 l 268 430 q 336 430 374 460 q 412 490 412 543 q 412 599 377 629 q 341 659 276 659 q 232 659 186 649 q 140 640 89 620 l 89 711 q 148 727 194 734 q 240 742 276 742 q 382 742 446 689 q 510 635 510 547 q 510 487 476 447 q 443 407 379 390 z"},";":{"x_min":0,"x_max":602,"ha":602,"o":"m 245 148 l 368 148 l 368 47 l 272 -140 l 197 -140 l 245 47 z m 239 519 l 362 519 l 362 371 l 239 371 z"},"J":{"x_min":0,"x_max":602,"ha":602,"o":"m 53 30 l 53 145 q 98 105 145 86 q 192 66 243 66 q 313 66 341 102 q 368 139 368 238 l 368 646 l 182 646 l 182 729 l 467 729 l 467 238 q 467 100 415 43 q 364 -14 243 -14 q 196 -14 150 -3 q 104 7 53 30 z"},"V":{"x_min":0,"x_max":602,"ha":602,"o":"m 301 83 l 472 729 l 574 729 l 361 0 l 241 0 l 28 729 l 130 729 z"},"\"":{"x_min":0,"x_max":602,"ha":602,"o":"m 437 729 l 437 458 l 352 458 l 352 729 z m 250 729 l 250 458 l 165 458 l 165 729 z"},"7":{"x_min":0,"x_max":602,"ha":602,"o":"m 68 729 l 527 729 l 527 687 l 266 0 l 163 0 l 417 646 l 68 646 z"},"S":{"x_min":0,"x_max":602,"ha":602,"o":"m 494 704 l 494 604 q 449 633 404 647 q 359 662 313 662 q 243 662 203 630 q 162 597 162 542 q 162 494 189 468 q 215 443 288 426 l 340 414 q 442 390 489 339 q 536 288 536 199 q 536 95 472 41 q 407 -14 284 -14 q 233 -14 181 -3 q 129 8 77 30 l 77 135 q 133 99 183 83 q 233 66 284 66 q 359 66 400 99 q 442 133 442 193 q 442 248 413 276 q 385 305 314 321 l 261 333 q 160 356 114 402 q 68 449 68 527 q 68 625 134 683 q 199 742 308 742 q 350 742 396 733 q 443 723 494 704 z"},"}":{"x_min":0,"x_max":602,"ha":602,"o":"m 108 -93 l 141 -93 q 210 -93 231 -71 q 252 -50 252 19 l 252 140 q 252 216 274 251 q 296 286 350 299 q 296 311 274 346 q 252 380 252 457 l 252 578 q 252 647 231 668 q 210 690 141 690 l 108 690 l 108 760 l 138 760 q 260 760 301 724 q 342 688 342 580 l 342 463 q 342 390 368 362 q 394 334 463 334 l 494 334 l 494 264 l 463 264 q 394 264 368 236 q 342 208 342 134 l 342 17 q 342 -91 301 -127 q 260 -163 138 -163 l 108 -163 z"},"Z":{"x_min":0,"x_max":602,"ha":602,"o":"m 87 729 l 560 729 l 560 654 l 179 83 l 571 83 l 571 0 l 76 0 l 76 75 l 447 646 l 87 646 z"},"x":{"x_min":0,"x_max":602,"ha":602,"o":"m 546 547 l 350 285 l 565 0 l 461 0 l 301 219 l 141 0 l 37 0 l 252 285 l 56 547 l 156 547 l 301 349 l 445 547 z"},")":{"x_min":0,"x_max":602,"ha":602,"o":"m 170 759 l 248 759 q 322 644 358 533 q 394 423 394 314 q 394 204 358 94 q 322 -17 248 -132 l 170 -132 q 235 -19 267 92 q 299 203 299 314 q 299 425 267 536 q 235 647 170 759 z"},"&":{"x_min":0,"x_max":602,"ha":602,"o":"m 267 443 l 470 170 q 489 194 499 230 q 508 267 508 318 q 508 333 506 368 l 506 371 l 586 371 l 586 352 q 586 273 568 214 q 550 155 513 112 l 596 0 l 492 0 l 454 53 q 414 19 368 2 q 323 -14 271 -14 q 166 -14 97 52 q 28 117 28 217 q 28 284 62 341 q 95 398 163 447 q 139 482 127 516 q 115 549 115 584 q 115 657 164 700 q 212 742 297 742 q 329 742 361 736 q 393 730 427 719 l 427 630 q 398 649 367 658 q 337 667 303 667 q 256 667 229 645 q 201 623 201 585 q 201 556 215 525 q 229 493 267 443 z m 203 392 q 158 356 136 317 q 114 277 114 232 q 114 158 163 110 q 211 61 287 61 q 308 61 330 67 q 353 73 374 84 q 387 91 396 97 q 404 103 412 109 z"},"_":{"x_min":0,"x_max":602,"ha":602,"o":"m 602 -197 l 602 -236 l 0 -236 l 0 -197 z"},"v":{"x_min":0,"x_max":602,"ha":602,"o":"m 49 547 l 142 547 l 301 88 l 460 547 l 553 547 l 359 0 l 243 0 z"},"O":{"x_min":0,"x_max":602,"ha":602,"o":"m 442 364 q 442 524 409 593 q 376 662 301 662 q 226 662 193 593 q 160 524 160 364 q 160 204 193 135 q 226 66 301 66 q 376 66 409 135 q 442 203 442 364 z m 545 364 q 545 173 485 80 q 424 -14 301 -14 q 177 -14 117 79 q 57 172 57 364 q 57 555 117 648 q 178 742 301 742 q 424 742 485 648 q 545 555 545 364 z"},"(":{"x_min":0,"x_max":602,"ha":602,"o":"m 432 759 q 367 647 335 537 q 303 426 303 314 q 303 202 335 91 q 367 -20 432 -132 l 354 -132 q 280 -16 244 94 q 208 205 208 314 q 208 423 244 533 q 280 644 354 759 z"},"C":{"x_min":0,"x_max":602,"ha":602,"o":"m 524 26 q 486 6 447 -4 q 407 -14 363 -14 q 223 -14 145 85 q 68 184 68 364 q 68 542 146 642 q 224 742 363 742 q 407 742 447 732 q 486 722 524 702 l 524 601 q 488 631 446 646 q 405 662 363 662 q 267 662 219 588 q 171 514 171 364 q 171 214 219 140 q 267 66 363 66 q 406 66 447 82 q 488 97 524 127 z"},"W":{"x_min":0,"x_max":602,"ha":602,"o":"m 0 729 l 96 729 l 166 137 l 249 529 l 352 529 l 436 136 l 506 729 l 602 729 l 493 0 l 400 0 l 301 433 l 202 0 l 109 0 z"},"A":{"x_min":0,"x_max":602,"ha":602,"o":"m 301 642 l 197 269 l 405 269 z m 241 729 l 361 729 l 584 0 l 482 0 l 428 190 l 173 190 l 120 0 l 18 0 z"},"f":{"x_min":0,"x_max":602,"ha":602,"o":"m 519 760 l 519 685 l 417 685 q 369 685 350 665 q 331 646 331 595 l 331 547 l 519 547 l 519 477 l 331 477 l 331 0 l 241 0 l 241 477 l 95 477 l 95 547 l 241 547 l 241 585 q 241 675 282 717 q 324 760 411 760 z"},"Q":{"x_min":0,"x_max":602,"ha":602,"o":"m 320 -13 q 316 -13 310 -14 q 304 -14 300 -14 q 178 -14 117 80 q 57 173 57 364 q 57 555 117 648 q 178 742 301 742 q 424 742 485 648 q 545 555 545 364 q 545 220 511 133 q 478 45 410 10 l 508 -83 l 434 -132 z m 442 364 q 442 524 409 593 q 376 662 301 662 q 226 662 193 593 q 160 524 160 364 q 160 204 193 135 q 226 66 301 66 q 376 66 409 135 q 442 203 442 364 z"},"w":{"x_min":0,"x_max":602,"ha":602,"o":"m 0 547 l 89 547 l 184 105 l 262 387 l 339 387 l 418 105 l 513 547 l 602 547 l 474 0 l 388 0 l 301 300 l 214 0 l 128 0 z"},"-":{"x_min":0,"x_max":602,"ha":602,"o":"m 174 314 l 428 314 l 428 234 l 174 234 z"},"E":{"x_min":0,"x_max":602,"ha":602,"o":"m 96 729 l 529 729 l 529 646 l 195 646 l 195 430 l 514 430 l 514 347 l 195 347 l 195 83 l 538 83 l 538 0 l 96 0 z"},"s":{"x_min":0,"x_max":602,"ha":602,"o":"m 475 528 l 475 440 q 437 462 397 474 q 358 485 318 485 q 257 485 227 465 q 197 445 197 405 q 197 368 219 350 q 242 332 331 315 l 367 308 q 434 295 469 257 q 503 219 503 158 q 503 77 445 31 q 388 -14 285 -14 q 245 -14 200 -6 q 156 3 104 20 l 104 113 q 154 87 200 74 q 246 61 287 61 q 347 61 379 85 q 412 109 412 153 q 412 215 292 239 l 289 240 l 255 247 q 177 262 142 298 q 106 334 106 396 q 106 475 159 517 q 212 560 311 560 q 355 560 396 552 q 436 544 475 528 z"},">":{"x_min":0,"x_max":602,"ha":602,"o":"m 43 469 l 43 558 l 559 354 l 559 273 l 43 69 l 43 158 l 458 313 z"},"l":{"x_min":0,"x_max":602,"ha":602,"o":"m 312 198 q 312 138 334 107 q 356 76 400 76 l 505 76 l 505 0 l 391 0 q 311 0 266 52 q 222 104 222 198 l 222 695 l 78 695 l 78 765 l 312 765 z"},"8":{"x_min":0,"x_max":602,"ha":602,"o":"m 301 346 q 235 346 199 309 q 163 272 163 205 q 163 138 199 100 q 236 63 301 63 q 367 63 403 100 q 439 137 439 205 q 439 272 403 309 q 366 346 301 346 z m 215 387 q 152 403 116 447 q 81 491 81 553 q 81 640 140 691 q 199 742 301 742 q 403 742 462 691 q 521 640 521 553 q 521 491 486 447 q 450 403 387 387 q 460 371 499 322 q 538 273 538 196 q 538 97 475 42 q 412 -14 301 -14 q 189 -14 127 41 q 64 97 64 195 q 64 273 103 322 q 142 371 215 387 z m 179 544 q 179 485 210 455 q 242 424 301 424 q 360 424 392 455 q 423 485 423 544 q 423 604 392 635 q 361 666 301 666 q 242 666 210 635 q 179 603 179 544 z"},"\\":{"x_min":0,"x_max":602,"ha":602,"o":"m 143 729 l 527 -93 l 434 -93 l 50 729 z"},"e":{"x_min":0,"x_max":602,"ha":602,"o":"m 543 296 l 543 252 l 154 252 l 154 249 q 154 160 200 111 q 247 62 332 62 q 375 62 422 76 q 469 89 522 117 l 522 28 q 471 7 423 -4 q 375 -14 331 -14 q 204 -14 132 62 q 60 139 60 273 q 60 404 130 482 q 201 560 318 560 q 422 560 483 489 q 543 418 543 296 z m 453 322 q 451 401 416 443 q 380 484 314 484 q 249 484 207 441 q 165 398 157 322 z"},"b":{"x_min":0,"x_max":602,"ha":602,"o":"m 448 273 q 448 377 415 431 q 382 484 317 484 q 251 484 218 430 q 184 377 184 273 q 184 169 218 116 q 251 62 317 62 q 382 62 415 115 q 448 168 448 273 z m 184 477 q 206 517 243 539 q 281 560 331 560 q 430 560 486 484 q 543 408 543 275 q 543 140 486 63 q 429 -14 330 -14 q 281 -14 244 7 q 207 28 184 69 l 184 0 l 94 0 l 94 760 l 184 760 z"},"%":{"x_min":0,"x_max":602,"ha":602,"o":"m 340 156 q 340 118 365 92 q 391 66 429 66 q 467 66 493 92 q 519 118 519 156 q 519 193 493 220 q 466 246 429 246 q 391 246 365 220 q 340 194 340 156 z m 274 156 q 274 222 319 267 q 364 312 429 312 q 460 312 489 300 q 517 289 539 266 q 562 243 574 215 q 586 187 586 156 q 586 91 541 45 q 495 0 429 0 q 363 0 318 45 q 274 89 274 156 z m 59 227 l 42 274 l 551 478 l 571 431 z m 82 543 q 82 504 108 479 q 133 453 172 453 q 209 453 236 479 q 262 505 262 543 q 262 581 236 607 q 209 633 172 633 q 134 633 108 607 q 82 581 82 543 z m 16 543 q 16 609 61 654 q 106 699 172 699 q 203 699 232 688 q 260 676 282 654 q 304 632 316 603 q 328 575 328 543 q 328 478 283 432 q 237 387 172 387 q 106 387 61 432 q 16 477 16 543 z"},"m":{"x_min":0,"x_max":602,"ha":602,"o":"m 330 491 q 347 526 372 543 q 398 560 434 560 q 500 560 527 509 q 554 458 554 317 l 554 0 l 472 0 l 472 313 q 472 429 459 457 q 446 485 412 485 q 373 485 359 455 q 344 425 344 313 l 344 0 l 262 0 l 262 313 q 262 430 248 458 q 234 485 198 485 q 163 485 149 455 q 135 425 135 313 l 135 0 l 53 0 l 53 547 l 135 547 l 135 500 q 151 529 175 545 q 199 560 230 560 q 267 560 292 543 q 316 526 330 491 z"},"#":{"x_min":0,"x_max":602,"ha":602,"o":"m 334 718 l 283 515 l 403 515 l 454 718 l 532 718 l 481 515 l 600 515 l 600 440 l 463 440 l 422 277 l 544 277 l 544 202 l 403 202 l 352 0 l 274 0 l 325 202 l 205 202 l 154 0 l 76 0 l 127 202 l 1 202 l 1 277 l 146 277 l 187 440 l 57 440 l 57 515 l 205 515 l 256 718 z m 385 440 l 265 440 l 224 277 l 344 277 z"},",":{"x_min":0,"x_max":602,"ha":602,"o":"m 245 148 l 368 148 l 368 47 l 272 -140 l 197 -140 l 245 47 z"},"n":{"x_min":0,"x_max":602,"ha":602,"o":"m 513 339 l 513 0 l 423 0 l 423 339 q 423 413 397 447 q 371 482 316 482 q 253 482 219 437 q 185 393 185 309 l 185 0 l 95 0 l 95 547 l 185 547 l 185 465 q 209 512 250 536 q 291 560 347 560 q 431 560 472 505 q 513 450 513 339 z"},"h":{"x_min":0,"x_max":602,"ha":602,"o":"m 513 339 l 513 0 l 423 0 l 423 339 q 423 413 397 447 q 371 482 316 482 q 253 482 219 437 q 185 393 185 309 l 185 0 l 95 0 l 95 760 l 185 760 l 185 465 q 209 512 250 536 q 291 560 347 560 q 431 560 472 505 q 513 450 513 339 z"},"z":{"x_min":0,"x_max":602,"ha":602,"o":"m 111 548 l 508 548 l 508 466 l 194 73 l 508 73 l 508 0 l 99 0 l 99 83 l 413 476 l 111 476 z"},"B":{"x_min":0,"x_max":602,"ha":602,"o":"m 180 348 l 180 81 l 297 81 q 383 81 419 111 q 456 141 456 210 q 456 281 417 315 q 379 348 297 348 z m 180 648 l 180 428 l 295 428 q 366 428 398 456 q 430 483 430 544 q 430 599 399 624 q 367 648 295 648 z m 81 729 l 297 729 q 409 729 469 681 q 530 632 530 544 q 530 477 498 438 q 466 400 402 390 q 474 379 514 329 q 555 278 555 200 q 555 101 490 51 q 425 0 297 0 l 81 0 z"},"K":{"x_min":0,"x_max":602,"ha":602,"o":"m 67 729 l 166 729 l 166 405 l 474 729 l 590 729 l 306 431 l 598 0 l 479 0 l 241 365 l 166 285 l 166 0 l 67 0 z"},"R":{"x_min":0,"x_max":602,"ha":602,"o":"m 371 344 q 409 334 436 307 q 463 280 503 199 l 602 0 l 496 0 l 409 184 q 372 263 342 285 q 312 308 263 308 l 169 308 l 169 0 l 70 0 l 70 729 l 273 729 q 393 729 457 675 q 521 621 521 518 q 521 446 482 400 q 442 354 371 344 z m 169 648 l 169 389 l 277 389 q 348 389 382 421 q 417 453 417 518 q 417 581 380 615 q 343 648 273 648 z"},"T":{"x_min":0,"x_max":602,"ha":602,"o":"m 23 729 l 579 729 l 579 646 l 351 646 l 351 0 l 252 0 l 252 646 l 23 646 z"},"P":{"x_min":0,"x_max":602,"ha":602,"o":"m 195 648 l 195 374 l 309 374 q 377 374 416 410 q 454 446 454 511 q 454 576 416 612 q 378 648 309 648 z m 96 729 l 309 729 q 431 729 494 674 q 557 618 557 511 q 557 403 494 348 q 432 293 309 293 l 195 293 l 195 0 l 96 0 z"},"|":{"x_min":0,"x_max":602,"ha":602,"o":"m 343 764 l 343 -236 l 259 -236 l 259 764 z"},"t":{"x_min":0,"x_max":602,"ha":602,"o":"m 300 702 l 300 547 l 504 547 l 504 477 l 300 477 l 300 180 q 300 120 323 96 q 346 72 403 72 l 504 72 l 504 0 l 394 0 q 293 0 251 41 q 210 81 210 180 l 210 477 l 64 477 l 64 547 l 210 547 l 210 702 z"},"M":{"x_min":0,"x_max":602,"ha":602,"o":"m 42 729 l 174 729 l 300 358 l 427 729 l 559 729 l 559 0 l 468 0 l 468 644 l 338 260 l 263 260 l 133 644 l 133 0 l 42 0 z"},"g":{"x_min":0,"x_max":602,"ha":602,"o":"m 419 278 q 419 379 386 431 q 353 484 290 484 q 224 484 189 431 q 155 379 155 278 q 155 177 190 124 q 225 71 291 71 q 353 71 386 124 q 419 177 419 278 z m 509 35 q 509 -88 451 -151 q 393 -215 280 -215 q 243 -215 202 -208 q 162 -201 121 -188 l 121 -99 q 169 -122 208 -132 q 247 -143 280 -143 q 353 -143 386 -104 q 419 -64 419 22 l 419 26 l 419 87 q 397 41 360 19 q 323 -4 270 -4 q 174 -4 117 73 q 60 149 60 278 q 60 407 117 483 q 174 560 270 560 q 323 560 359 539 q 396 518 419 474 l 419 545 l 509 545 z"},"j":{"x_min":0,"x_max":602,"ha":602,"o":"m 293 -10 l 293 477 l 138 477 l 138 547 l 383 547 l 383 -10 q 383 -105 339 -156 q 295 -208 215 -208 l 91 -208 l 91 -132 l 205 -132 q 249 -132 271 -101 q 293 -71 293 -10 z m 293 760 l 383 760 l 383 646 l 293 646 z"},"i":{"x_min":0,"x_max":602,"ha":602,"o":"m 125 547 l 355 547 l 355 70 l 533 70 l 533 0 l 87 0 l 87 70 l 265 70 l 265 477 l 125 477 z m 265 760 l 355 760 l 355 646 l 265 646 z"},"y":{"x_min":0,"x_max":602,"ha":602,"o":"m 419 176 q 396 119 362 25 q 313 -104 297 -132 q 274 -170 241 -189 q 207 -208 162 -208 l 90 -208 l 90 -133 l 143 -133 q 183 -133 205 -110 q 228 -87 262 9 l 51 547 l 146 547 l 308 119 l 468 547 l 563 547 z"},"@":{"x_min":0,"x_max":602,"ha":602,"o":"m 507 266 q 507 329 476 367 q 444 405 392 405 q 340 405 308 367 q 277 329 277 266 q 277 203 308 165 q 340 127 392 127 q 444 127 476 165 q 507 203 507 266 z m 575 66 l 505 66 l 505 120 q 487 89 455 73 q 423 56 383 56 q 304 56 253 115 q 201 174 201 266 q 201 358 253 417 q 304 476 383 476 q 422 476 455 459 q 487 442 505 412 l 505 443 q 505 519 462 565 q 419 612 348 612 q 228 612 157 518 q 86 425 86 265 q 86 104 167 9 q 247 -86 381 -86 q 407 -86 434 -81 q 460 -76 488 -66 l 511 -132 q 480 -144 450 -150 q 420 -156 392 -156 q 218 -156 115 -42 q 13 72 13 265 q 13 456 105 568 q 197 681 351 681 q 453 681 514 616 q 575 551 575 442 z"},".":{"x_min":0,"x_max":602,"ha":602,"o":"m 239 149 l 362 149 l 362 0 l 239 0 z"},"p":{"x_min":0,"x_max":602,"ha":602,"o":"m 183 69 l 183 -208 l 93 -208 l 93 547 l 183 547 l 183 477 q 206 518 243 539 q 280 560 329 560 q 428 560 485 483 q 541 407 541 271 q 541 138 484 62 q 428 -14 329 -14 q 279 -14 242 7 q 205 28 183 69 z m 447 273 q 447 377 414 431 q 381 484 316 484 q 250 484 217 430 q 183 377 183 273 q 183 169 217 116 q 250 62 316 62 q 381 62 414 115 q 447 168 447 273 z"},"X":{"x_min":0,"x_max":602,"ha":602,"o":"m 42 729 l 148 729 l 308 454 l 471 729 l 577 729 l 359 386 l 593 0 l 487 0 l 308 314 l 115 0 l 9 0 l 253 386 z"},"*":{"x_min":0,"x_max":602,"ha":602,"o":"m 521 609 l 346 514 l 521 419 l 493 371 l 329 470 l 329 286 l 273 286 l 273 470 l 109 371 l 81 419 l 256 514 l 81 609 l 109 657 l 273 558 l 273 742 l 329 742 l 329 558 l 493 657 z"},"Y":{"x_min":0,"x_max":602,"ha":602,"o":"m 18 729 l 123 729 l 301 407 l 478 729 l 584 729 l 350 327 l 350 0 l 251 0 l 251 327 z"},"c":{"x_min":0,"x_max":602,"ha":602,"o":"m 518 28 q 482 7 444 -4 q 405 -14 365 -14 q 238 -14 167 62 q 95 138 95 273 q 95 408 167 484 q 238 560 365 560 q 405 560 442 550 q 480 540 518 518 l 518 424 q 482 456 447 470 q 411 484 365 484 q 281 484 235 429 q 190 375 190 273 q 190 172 236 117 q 281 62 365 62 q 412 62 449 76 q 486 91 518 121 z"},"!":{"x_min":0,"x_max":602,"ha":602,"o":"m 252 729 l 351 729 l 351 409 l 341 235 l 262 235 l 252 409 z m 252 124 l 351 124 l 351 0 l 252 0 z"},"/":{"x_min":0,"x_max":602,"ha":602,"o":"m 434 729 l 527 729 l 143 -93 l 50 -93 z"},"[":{"x_min":0,"x_max":602,"ha":602,"o":"m 226 760 l 433 760 l 433 690 l 316 690 l 316 -62 l 433 -62 l 433 -132 l 226 -132 z"},"6":{"x_min":0,"x_max":602,"ha":602,"o":"m 484 713 l 484 622 q 453 640 418 650 q 384 659 346 659 q 252 659 204 589 q 156 518 156 381 q 179 430 221 456 q 262 482 316 482 q 421 482 479 417 q 537 353 537 234 q 537 116 478 51 q 418 -14 310 -14 q 183 -14 124 77 q 65 168 65 364 q 65 548 136 645 q 207 742 342 742 q 378 742 414 735 q 450 727 484 713 z m 308 405 q 245 405 209 359 q 173 314 173 234 q 173 154 209 108 q 245 63 308 63 q 374 63 407 106 q 440 149 440 234 q 440 319 407 362 q 374 405 308 405 z"},"r":{"x_min":0,"x_max":602,"ha":602,"o":"m 564 434 q 535 457 505 467 q 476 477 440 477 q 356 477 312 424 q 267 372 267 272 l 267 0 l 177 0 l 177 547 l 267 547 l 267 440 q 290 498 336 529 q 383 560 447 560 q 480 560 509 552 q 538 543 564 526 z"},"2":{"x_min":0,"x_max":602,"ha":602,"o":"m 182 83 l 517 83 l 517 0 l 74 0 l 74 83 q 166 179 234 253 q 302 327 328 357 q 377 417 394 453 q 411 490 411 529 q 411 590 375 625 q 339 659 277 659 q 232 659 184 643 q 135 627 80 594 l 80 694 q 130 718 179 730 q 228 742 275 742 q 382 742 447 685 q 512 628 512 536 q 512 489 490 442 q 469 396 420 339 q 393 307 341 251 q 289 195 182 83 z"},"{":{"x_min":0,"x_max":602,"ha":602,"o":"m 494 -93 l 494 -163 l 463 -163 q 341 -163 300 -127 q 259 -91 259 17 l 259 134 q 259 208 233 236 q 207 264 138 264 l 108 264 l 108 334 l 138 334 q 207 334 233 362 q 259 390 259 463 l 259 580 q 259 688 300 724 q 341 760 463 760 l 494 760 l 494 690 l 460 690 q 392 690 371 669 q 350 647 350 578 l 350 457 q 350 380 328 346 q 306 311 252 299 q 306 286 328 251 q 350 216 350 140 l 350 19 q 350 -51 371 -72 q 392 -93 460 -93 z"},"9":{"x_min":0,"x_max":602,"ha":602,"o":"m 291 323 q 354 323 390 369 q 426 414 426 494 q 426 574 390 620 q 354 665 291 665 q 226 665 192 622 q 159 579 159 494 q 159 409 192 366 q 225 323 291 323 z m 115 15 l 115 106 q 146 88 181 78 q 215 69 253 69 q 347 69 395 139 q 443 210 443 347 q 420 298 378 272 q 337 246 283 246 q 178 246 120 311 q 62 376 62 495 q 62 613 121 677 q 181 742 289 742 q 416 742 475 651 q 534 560 534 364 q 534 180 463 83 q 392 -14 257 -14 q 221 -14 185 -7 q 149 1 115 15 z"}," ":{"x_min":0,"x_max":602,"ha":602,"o":""},"I":{"x_min":0,"x_max":602,"ha":602,"o":"m 98 729 l 503 729 l 503 646 l 350 646 l 350 83 l 503 83 l 503 0 l 98 0 l 98 83 l 251 83 l 251 646 l 98 646 z"},"H":{"x_min":0,"x_max":602,"ha":602,"o":"m 67 729 l 166 729 l 166 430 l 436 430 l 436 729 l 535 729 l 535 0 l 436 0 l 436 347 l 166 347 l 166 0 l 67 0 z"},"4":{"x_min":0,"x_max":602,"ha":602,"o":"m 359 639 l 129 254 l 359 254 z m 343 729 l 457 729 l 457 254 l 554 254 l 554 174 l 457 174 l 457 0 l 359 0 l 359 174 l 50 174 l 50 267 z"},"~":{"x_min":0,"x_max":602,"ha":602,"o":"m 559 381 l 559 296 q 522 267 488 254 q 453 240 414 240 q 370 240 315 265 q 304 270 299 272 q 261 288 236 294 q 211 300 186 300 q 147 300 113 285 q 79 271 43 240 l 43 325 q 81 354 117 368 q 152 381 193 381 q 219 381 243 375 q 268 370 304 355 q 310 353 320 348 q 376 321 422 321 q 456 321 490 336 q 523 351 559 381 z"},"D":{"x_min":0,"x_max":602,"ha":602,"o":"m 213 81 q 337 81 387 142 q 436 204 436 364 q 436 525 387 587 q 338 648 213 648 l 166 648 l 166 81 z m 215 729 q 382 729 461 640 q 540 551 540 364 q 540 177 461 89 q 382 0 215 0 l 67 0 l 67 729 z"},"^":{"x_min":0,"x_max":602,"ha":602,"o":"m 344 729 l 567 457 l 480 457 l 301 650 l 122 457 l 35 457 l 258 729 z"},"0":{"x_min":0,"x_max":602,"ha":602,"o":"m 236 366 q 236 393 255 413 q 273 432 300 432 q 327 432 347 413 q 366 393 366 366 q 366 339 347 320 q 328 301 300 301 q 272 301 254 319 q 236 338 236 366 z m 301 664 q 232 664 198 590 q 164 516 164 364 q 164 212 198 138 q 232 64 301 64 q 370 64 404 138 q 438 212 438 364 q 438 516 404 590 q 370 664 301 664 z m 301 742 q 417 742 477 646 q 537 551 537 364 q 537 177 477 82 q 417 -14 301 -14 q 184 -14 125 82 q 65 177 65 364 q 65 551 125 646 q 184 742 301 742 z"},"F":{"x_min":0,"x_max":602,"ha":602,"o":"m 114 729 l 543 729 l 543 646 l 213 646 l 213 431 l 512 431 l 512 348 l 213 348 l 213 0 l 114 0 z"},"`":{"x_min":0,"x_max":602,"ha":602,"o":"m 233 800 l 370 616 l 295 616 l 136 800 z"},"k":{"x_min":0,"x_max":602,"ha":602,"o":"m 115 760 l 208 760 l 208 320 l 444 547 l 553 547 l 338 341 l 587 0 l 477 0 l 275 282 l 208 219 l 208 0 l 115 0 z"},"u":{"x_min":0,"x_max":602,"ha":602,"o":"m 95 207 l 95 546 l 185 546 l 185 207 q 185 133 211 99 q 237 64 292 64 q 355 64 389 109 q 423 153 423 237 l 423 546 l 513 546 l 513 0 l 423 0 l 423 82 q 399 35 358 10 q 316 -14 261 -14 q 177 -14 136 41 q 95 96 95 207 z"},"]":{"x_min":0,"x_max":602,"ha":602,"o":"m 376 760 l 376 -132 l 169 -132 l 169 -62 l 286 -62 l 286 690 l 169 690 l 169 760 z"},"U":{"x_min":0,"x_max":602,"ha":602,"o":"m 72 280 l 72 729 l 171 729 l 171 235 q 171 182 174 159 q 177 136 184 124 q 200 95 229 81 q 259 66 301 66 q 343 66 373 81 q 402 95 418 124 q 425 136 428 159 q 431 181 431 234 l 431 729 l 530 729 l 530 280 q 530 168 516 121 q 502 74 468 43 q 436 14 394 0 q 353 -14 301 -14 q 250 -14 208 0 q 167 14 134 43 q 100 73 86 121 q 72 169 72 280 z"},"o":{"x_min":0,"x_max":602,"ha":602,"o":"m 301 484 q 232 484 197 431 q 162 377 162 273 q 162 169 197 115 q 232 62 301 62 q 370 62 405 115 q 440 169 440 273 q 440 377 405 431 q 370 484 301 484 z m 301 560 q 415 560 475 486 q 535 413 535 273 q 535 133 475 59 q 415 -14 301 -14 q 187 -14 127 59 q 67 133 67 273 q 67 413 127 486 q 187 560 301 560 z"},"N":{"x_min":0,"x_max":602,"ha":602,"o":"m 68 729 l 193 729 l 439 129 l 439 729 l 534 729 l 534 0 l 409 0 l 163 600 l 163 0 l 68 0 z"},"+":{"x_min":0,"x_max":602,"ha":602,"o":"m 342 572 l 342 355 l 559 355 l 559 272 l 342 272 l 342 55 l 260 55 l 260 272 l 43 272 l 43 355 l 260 355 l 260 572 z"},"G":{"x_min":0,"x_max":602,"ha":602,"o":"m 539 60 q 500 23 450 5 q 400 -14 343 -14 q 204 -14 127 85 q 50 185 50 364 q 50 542 128 642 q 206 742 345 742 q 391 742 433 729 q 475 716 514 690 l 514 589 q 475 626 433 644 q 392 662 345 662 q 249 662 201 588 q 153 513 153 364 q 153 212 199 139 q 246 66 343 66 q 375 66 400 73 q 425 81 445 97 l 445 293 l 339 293 l 339 374 l 539 374 z"},"q":{"x_min":0,"x_max":602,"ha":602,"o":"m 162 271 q 162 167 195 113 q 228 60 293 60 q 358 60 391 114 q 425 167 425 271 q 425 375 391 428 q 358 482 293 482 q 228 482 195 429 q 162 375 162 271 z m 425 68 q 403 27 365 6 q 328 -16 279 -16 q 181 -16 124 60 q 67 136 67 269 q 67 405 124 481 q 180 558 279 558 q 328 558 365 537 q 402 516 425 475 l 425 545 l 515 545 l 515 -210 l 425 -210 z"},"d":{"x_min":0,"x_max":602,"ha":602,"o":"m 419 477 l 419 760 l 509 760 l 509 0 l 419 0 l 419 69 q 396 28 359 7 q 322 -14 273 -14 q 174 -14 117 63 q 60 140 60 275 q 60 408 117 484 q 174 560 273 560 q 322 560 360 539 q 397 518 419 477 z m 155 273 q 155 168 188 115 q 221 62 286 62 q 351 62 385 116 q 419 169 419 273 q 419 377 385 430 q 351 484 286 484 q 221 484 188 431 q 155 377 155 273 z"},"1":{"x_min":0,"x_max":602,"ha":602,"o":"m 132 83 l 285 83 l 285 640 l 120 603 l 120 693 l 284 729 l 383 729 l 383 83 l 534 83 l 534 0 l 132 0 z"},"5":{"x_min":0,"x_max":602,"ha":602,"o":"m 101 729 l 470 729 l 470 646 l 191 646 l 191 467 q 212 475 233 478 q 254 482 276 482 q 389 482 456 415 q 522 348 522 234 q 522 119 452 52 q 383 -14 262 -14 q 204 -14 156 -6 q 108 1 70 17 l 70 117 q 115 93 160 81 q 206 69 253 69 q 334 69 379 112 q 423 155 423 234 q 423 312 377 355 q 332 399 250 399 q 210 399 173 390 q 135 381 101 363 z"}}}
